inDegrees=no
num_controls=7
num_derivatives=13
num_iterations=138
num_multipliers=7
num_parameters=0
num_slacks=7
num_states=26
objective=5.124612
objective_accelerations=0.398557
objective_balance=0.007826
objective_effort=0.359193
objective_height=4.289324
objective_ligament=0.069712
solver_duration=1161.900876
status=Solve_Succeeded
success=true
DataType=double
version=3
OpenSimVersion=4.4-2022-07-23-0e9fedc
endheader
time	/jointset/ground_pelvis/pelvis_tilt/value	/jointset/ground_pelvis/pelvis_tx/value	/jointset/ground_pelvis/pelvis_ty/value	/jointset/hip_r/hip_flexion_r/value	/jointset/hip_r/hip_adduction_r/value	/jointset/hip_r/hip_rotation_r/value	/jointset/back/lumbar_extension/value	/jointset/patellofemoral_r/patellar_flexion_r/value	/jointset/knee_r/knee_flexion_r/value	/jointset/knee_r/knee_adduction_r/value	/jointset/knee_r/knee_rotation_r/value	/jointset/ankle_r/ankle_angle_r/value	/jointset/subtalar_r/subtalar_angle_r/value	/jointset/ground_pelvis/pelvis_tilt/speed	/jointset/ground_pelvis/pelvis_tx/speed	/jointset/ground_pelvis/pelvis_ty/speed	/jointset/hip_r/hip_flexion_r/speed	/jointset/hip_r/hip_adduction_r/speed	/jointset/hip_r/hip_rotation_r/speed	/jointset/back/lumbar_extension/speed	/jointset/patellofemoral_r/patellar_flexion_r/speed	/jointset/knee_r/knee_flexion_r/speed	/jointset/knee_r/knee_adduction_r/speed	/jointset/knee_r/knee_rotation_r/speed	/jointset/ankle_r/ankle_angle_r/speed	/jointset/subtalar_r/subtalar_angle_r/speed	/forceset/tau_hip_flexion_r	/forceset/tau_hip_adduction_r	/forceset/tau_hip_rotation_r	/forceset/tau_knee_flexion_r	/forceset/tau_ankle_angle_r	/forceset/tau_subtalar_angle_r	/forceset/tau_lumbar_extension	lambda_cid13_p0	lambda_cid14_p0	lambda_cid14_p1	lambda_cid14_p2	lambda_cid14_p3	lambda_cid14_p4	lambda_cid14_p5	/jointset/ground_pelvis/pelvis_tilt/accel	/jointset/ground_pelvis/pelvis_tx/accel	/jointset/ground_pelvis/pelvis_ty/accel	/jointset/hip_r/hip_flexion_r/accel	/jointset/hip_r/hip_adduction_r/accel	/jointset/hip_r/hip_rotation_r/accel	/jointset/back/lumbar_extension/accel	/jointset/patellofemoral_r/patellar_flexion_r/accel	/jointset/knee_r/knee_flexion_r/accel	/jointset/knee_r/knee_adduction_r/accel	/jointset/knee_r/knee_rotation_r/accel	/jointset/ankle_r/ankle_angle_r/accel	/jointset/subtalar_r/subtalar_angle_r/accel	gamma_cid13_p0	gamma_cid14_p0	gamma_cid14_p1	gamma_cid14_p2	gamma_cid14_p3	gamma_cid14_p4	gamma_cid14_p5
1	-0.1101073730975743	0.01999083594193816	0.7224603716879798	1.083253985921145	-0.2286800581506443	-0.1431705341312321	-0.7853556649000526	1.290806245240577	1.290806245240576	-0.1744353429470395	0.1742641934968103	0.4363044170936157	0.1953595711442054	0.06656763730643889	0.006731946263707977	0.01557186552488442	-0.1024794323806141	-0.001673519496552282	0.004238402957153515	0.006414123588100365	-0.0248125908525878	-0.02481259085258987	0.01459342774533457	-0.0001094092344086764	0.00921799822183654	0.001784851575872994	-0.254155579246736	0.02515825991389173	0.01947053636573885	-0.4197450788444694	-0.04391060697715046	0.0130849349051963	0.3108314370689855	-0.04365678765222198	-63.31933443571891	-7.147635013802563	3.553147438224967	8.215484297750875	-742.708688071804	77.17266965496042	0.8876919430766432	0.144913155529696	1.316292088493756	-3.990858378804607	0.2537196588451523	-0.1460680225161083	0.4238210953080346	-4.212283996874359	-4.212283996874343	0.9370051588054598	-0.00315002368048291	-1.292607838989692	-0.2251042304377057	-6.996285786541282e-11	-5.884527355778178e-10	1.611520926099457e-08	6.455430975700599e-09	3.750175889514452e-10	-3.60381119579111e-09	2.144336745073891e-08
1.01	-0.1093984193849114	0.02006558293937767	0.7226817078163016	1.082030867389378	-0.2286844469036789	-0.1431334191399257	-0.7852677874130994	1.290348171330557	1.290348171330466	-0.1742402230427919	0.1742628383041743	0.4363321681996176	0.1953655815218161	0.07517071323963416	0.008237639334466274	0.02868836992178572	-0.1421075097569005	0.0007849420448467275	0.003193080570271287	0.01134881604785178	-0.06679017095593019	-0.06679017095593409	0.02445097803701301	-0.0001530998461401912	-0.0036434761455083	-0.0005900560138604232	-0.2547402713413258	0.02521143587905857	0.01950263693678501	-0.4195525015323929	-0.04420911553439714	0.01307757620662354	0.3116904018346828	-0.04364812649640305	-63.43741411087168	-7.164941248704465	3.548408460878365	8.048037021272078	-743.1837005814688	77.14873885302127	0.8387578791644013	0.1564252174142637	1.308279552166019	-3.943266652897616	0.240290618362594	-0.0824890702849404	0.5564096565701996	-4.188692484281622	-4.188692484281956	1.013195189288263	-0.00368997910745233	-1.279272896026655	-0.244766639077699	2.456603173592835e-09	3.339750639911919e-09	3.322396907955224e-08	3.446045823032665e-08	-3.995040463773157e-10	-7.61171931965556e-09	4.955899813539633e-08
1.02	-0.1086050064207773	0.02015599243443757	0.7230339989759674	1.080412571236693	-0.2286645747979884	-0.1431065023171746	-0.7851249397344394	1.28947068212606	1.289470682125848	-0.1739459145906124	0.1742613039255943	0.4362320334302586	0.195347626300362	0.08345948760178502	0.009864445787784103	0.04176287179383295	-0.1815149565674616	0.003178652249250657	0.002198769242970735	0.01740816191807413	-0.1086956497479754	-0.1086956497479832	0.03443113732625625	-0.0001452464253954833	-0.01635917692964815	-0.003008268237051131	-0.2553249634357981	0.02526461184426368	0.01953473750757662	-0.4193599242203413	-0.04450762409164527	0.01307021750812831	0.3125493666004854	-0.04364311073120841	-63.56419276757045	-7.178433098004581	3.536964195231425	7.882715858066188	-743.8054408607801	77.16772918859157	0.8248316288679178	0.1691358320414202	1.30789158352293	-3.946732265659413	0.2407693914462011	-0.1358658105997876	0.6487517774019783	-4.197863734614964	-4.197863734615352	0.9615269583183356	0.007158782814717147	-1.26345312234899	-0.2337651571292051	5.316511045400342e-09	7.718194363996106e-09	4.738686530737818e-08	6.240594002257681e-08	-2.351539763648205e-09	-1.238511072396568e-08	7.599409504159441e-08
1.03	-0.1077300282747424	0.02026318649669723	0.7235168501483146	1.078401099336346	-0.228621035264721	-0.1430893082714413	-0.7849165586442207	1.288174312396643	1.288174312396593	-0.1735512480304908	0.1742600261516327	0.4360052356135437	0.1953052528395434	0.09150716033666202	0.01158572854199967	0.0548026865820789	-0.2207614907377989	0.005523881037746915	0.001248119787193101	0.02438935928661941	-0.1505844072033241	-0.1505844072033264	0.04451972370982996	-0.0001110737863444973	-0.02899961287064264	-0.005475623369549498	-0.2555438819135543	0.02538532065937105	0.01959029020723094	-0.4188842075124386	-0.04495387333902334	0.01301583092568081	0.3130028153986406	-0.04364868776763921	-63.72672908117166	-7.221270470182835	3.5332376802849	7.907680271446162	-744.0673864536417	77.08082810680411	0.7903909419676111	0.1753279035827618	1.30132155019228	-3.910921277587892	0.2306069051286298	-0.07344429166933091	0.7409991902354948	-4.185300064481458	-4.185300064480349	1.035158230051464	0.001454074595099443	-1.264223202264309	-0.2545801205345011	8.179820364558355e-09	1.210123237735167e-08	6.151970170264561e-08	9.035081420806802e-08	-4.315590930734838e-09	-1.71663131821579e-08	1.024120436439306e-07
